<?xml version="1.0" encoding="UTF-8"?>
<svg id="Layer_1" data-name="Layer 1" xmlns="http://www.w3.org/2000/svg" viewBox="0 0 296.95 756.11">
  <defs>
    <style>
      .cls-1 {
        fill: #fff;
      }

      .cls-1, .cls-2 {
        stroke: #231f20;
        stroke-miterlimit: 10;
      }

      .cls-2 {
        fill: #9f4f50;
      }
    </style>
  </defs>
  <path class="cls-2" d="M79.16,153.8C66.77,140.51-17.94,48.49,4.16,14.8,7.79,9.25,16.45,2.04,27.16,.8c24.59-2.86,43.21,27.66,44,29l8.15,10.67,7.42-10.78c.79-1.34,19.41-31.86,44-29,10.71,1.25,19.36,8.46,23,14,22.1,33.7-62.61,125.71-75,139"/>
  <path class="cls-1" d="M218.22,755.77c-12.39-13.29-97.1-105.3-75-139,3.64-5.54,12.29-12.75,23-14,24.59-2.86,43.21,27.66,44,29l8.15,10.67,7.42-10.78c.79-1.34,19.41-31.86,44-29,10.71,1.25,19.36,8.46,23,14,22.1,33.7-62.61,125.71-75,139"/>
</svg>